<!DOCTYPE svg PUBLIC "-//W3C//DTD SVG 1.1//EN" "http://www.w3.org/Graphics/SVG/1.1/DTD/svg11.dtd">
<!-- Uploaded to: SVG Repo, www.svgrepo.com, Transformed by: SVG Repo Mixer Tools -->
<svg fill="#ffffff" height="99px" width="99px" version="1.1" id="Layer_1" xmlns="http://www.w3.org/2000/svg" xmlns:xlink="http://www.w3.org/1999/xlink" viewBox="-225.28 -225.28 962.56 962.56" xml:space="preserve" stroke="#ffffff">
<g id="SVGRepo_bgCarrier" stroke-width="0"/>
<g id="SVGRepo_tracerCarrier" stroke-linecap="round" stroke-linejoin="round"/>
<g id="SVGRepo_iconCarrier"> <g> <g> <path d="M497.155,454.686c-21.532-2.587-41.847-12.467-57.194-27.808c-6.521-6.511-17.087-6.516-23.608,0.006 c-38.173,38.173-105.17,38.173-143.342,0c-6.521-6.521-17.087-6.521-23.608,0c-38.173,38.173-105.17,38.173-143.342,0 c-6.272-6.277-17.358-6.255-23.608,0c-15.413,15.418-35.835,25.303-57.498,27.842c-9.152,1.071-15.706,9.364-14.64,18.521 c1.076,9.162,9.337,15.668,18.531,14.64c23.847-2.788,46.585-12.222,65.411-26.945c48.237,37.716,118.711,37.717,166.95,0 c48.249,37.732,118.724,37.716,166.95-0.006c18.727,14.64,41.325,24.053,65.019,26.901c9.109,1.087,17.466-5.429,18.565-14.581 C512.839,464.099,506.318,455.784,497.155,454.686z"/> </g> </g> <g> <g> <path d="M495.295,255.504H345.04v-16.695c0-27.618-22.467-50.085-50.085-50.085H94.615c-27.618,0-50.085,22.467-50.085,50.085 v83.475H16.705c-11.368,0-19.441,11.159-15.837,21.972L26.282,420.5c12.252-2.495,23.692-8.359,32.553-17.225 c19.273-19.284,51.573-19.289,70.845,0.006c25.12,25.132,71.012,25.098,96.115-0.006c19.57-19.581,51.255-19.58,70.823,0 c25.141,25.14,71.023,25.104,96.126,0c19.551-19.562,51.217-19.589,70.801-0.027c1.369,1.368,2.935,2.494,4.418,3.727 l43.168-129.5C514.742,266.645,506.646,255.504,495.295,255.504z M161.396,289.062h-33.39c-9.217,0-16.695-7.473-16.695-16.695 c0-9.222,7.478-16.918,16.695-16.918h33.39c9.217,0,16.695,7.695,16.695,16.918C178.091,281.589,170.613,289.062,161.396,289.062z M261.566,289.062h-33.39c-9.217,0-16.695-7.473-16.695-16.695c0-9.222,7.478-16.918,16.695-16.918h33.39 c9.217,0,16.695,7.695,16.695,16.918C278.261,281.589,270.783,289.062,261.566,289.062z M403.473,355.842h-33.39 c-9.217,0-16.695-7.473-16.695-16.695c0-9.222,7.478-16.918,16.695-16.918h33.39c9.217,0,16.695,7.695,16.695,16.918 C420.168,348.369,412.69,355.842,403.473,355.842z"/> </g> </g> <g> <g> <path d="M175.287,44.73c-10.565-15.841-28.238-21.964-47.28-21.964s-36.716,6.123-47.28,21.964 c-9.29,13.924-29.689,13.953-38.998,0c-5.12-7.679-15.489-9.739-23.151-4.63c-7.674,5.114-9.75,15.477-4.63,23.151 C24.51,79.092,42.184,88.554,61.226,88.554c19.042,0,36.716-9.462,47.28-25.303c4.424-6.63,11.532-10.434,19.5-10.434 s15.076,3.804,19.5,10.434c5.12,7.674,15.477,9.733,23.151,4.63C178.331,62.767,180.407,52.404,175.287,44.73z"/> </g> </g> <g> <g> <path d="M261.566,88.554h-66.78c-9.217,0-16.695,7.473-16.695,16.695v16.695h-50.085c-9.217,0-16.695,7.473-16.695,16.695v16.695 h166.95v-50.085C278.261,96.027,270.783,88.554,261.566,88.554z"/> </g> </g> </g>
</svg>